<?xml version="1.0" encoding="UTF-8" standalone="no"?>
<svg
   xmlns:dc="http://purl.org/dc/elements/1.1/"
   xmlns:cc="http://creativecommons.org/ns#"
   xmlns:rdf="http://www.w3.org/1999/02/22-rdf-syntax-ns#"
   xmlns:svg="http://www.w3.org/2000/svg"
   xmlns="http://www.w3.org/2000/svg"
   xmlns:sodipodi="http://sodipodi.sourceforge.net/DTD/sodipodi-0.dtd"
   xmlns:inkscape="http://www.inkscape.org/namespaces/inkscape"
   width="169.86131mm"
   height="54.51355mm"
   viewBox="0 0 169.86131 54.51355"
   version="1.1"
   id="svg8"
   inkscape:version="1.0.2 (e86c8708, 2021-01-15)"
   sodipodi:docname="drawing.svg">
  <defs
     id="defs2" />
  <sodipodi:namedview
     id="base"
     pagecolor="#ffffff"
     bordercolor="#666666"
     borderopacity="1.0"
     inkscape:pageopacity="0.0"
     inkscape:pageshadow="2"
     inkscape:zoom="0.49497475"
     inkscape:cx="225.51616"
     inkscape:cy="473.19603"
     inkscape:document-units="mm"
     inkscape:current-layer="layer1"
     inkscape:document-rotation="0"
     showgrid="false"
     inkscape:window-width="1440"
     inkscape:window-height="847"
     inkscape:window-x="0"
     inkscape:window-y="25"
     inkscape:window-maximized="1"
     fit-margin-top="0"
     fit-margin-left="0"
     fit-margin-right="0"
     fit-margin-bottom="0" />
  <metadata
     id="metadata5">
    <rdf:RDF>
      <cc:Work
         rdf:about="">
        <dc:format>image/svg+xml</dc:format>
        <dc:type
           rdf:resource="http://purl.org/dc/dcmitype/StillImage" />
        <dc:title></dc:title>
      </cc:Work>
    </rdf:RDF>
  </metadata>
  <g
     inkscape:label="Layer 1"
     inkscape:groupmode="layer"
     id="layer1"
     transform="translate(-8.424258,-16.557654)">
    <g
       id="g901"
       transform="translate(-12.828937,-53.453906)">
      <path
         style="fill:#eedd97;stroke-width:0.264583"
         d="m 24.819697,124.05003 c -0.439518,-0.28102 -1.272956,-0.59951 -1.852084,-0.70776 -0.579128,-0.10825 -1.201787,-0.3198 -1.383688,-0.47012 -0.260045,-0.21489 -0.33073,-5.29033 -0.33073,-23.747661 0,-12.910899 0.07762,-24.743039 0.1725,-26.293646 l 0.172499,-2.819283 h 84.586036 84.58604 l 0.17151,2.976562 c 0.0943,1.637109 0.17206,13.469249 0.17272,26.293646 0.001,18.336012 -0.0694,23.374132 -0.32953,23.584142 -0.1819,0.14689 -0.85206,0.35311 -1.48925,0.45828 -0.63718,0.10517 -1.57165,0.43497 -2.07659,0.7329 -0.90382,0.53326 -1.13038,0.539 -14.58419,0.36956 -7.51636,-0.0947 -22.29814,-0.34825 -32.84841,-0.56354 -24.23582,-0.49454 -42.891689,-0.49458 -67.204166,-1.3e-4 -10.55026,0.21456 -25.433074,0.45939 -33.072918,0.54405 -13.414874,0.14867 -13.917995,0.13644 -14.689749,-0.357 z"
         id="path915" />
      <path
         style="fill:#f8e07c;stroke-width:0.264583"
         d="m 21.90444,122.33332 c -0.06942,-0.18212 -0.09552,-11.93973 -0.058,-26.128011 l 0.06821,-25.796874 h 84.2698 84.26979 v 26.061457 26.061458 l -84.21179,0.0666 c -67.230586,0.0531 -84.237252,-2.2e-4 -84.338014,-0.26459 z"
         id="path913" />
      <path
         style="fill:#cab765;stroke-width:0.264583"
         d="m 114.47231,110.65654 c -1.77141,-0.57862 -2.90848,-1.42113 -3.48174,-2.57978 -0.80846,-1.63406 -0.40395,-2.07019 1.92757,-2.07826 l 1.04515,-0.004 -1.04749,-0.67921 c -1.90748,-1.23683 -2.75853,-3.15525 -2.76112,-6.224057 -0.003,-3.190388 1.13508,-5.550553 3.17831,-6.592929 1.4309,-0.729991 4.03746,-0.721895 5.2483,0.0163 0.80362,0.489945 0.91664,0.501137 1.19644,0.118494 0.24531,-0.335492 0.71664,-0.406289 2.28754,-0.343602 l 1.97856,0.07895 v 7.582564 7.58257 l -0.82197,1.01521 c -1.2745,1.57414 -2.92086,2.29032 -5.48719,2.38698 -1.3245,0.0499 -2.58409,-0.0581 -3.26236,-0.27963 z m 4.35984,-3.80175 c 0.29452,-0.25466 0.6191,-0.74892 0.7213,-1.09836 0.16012,-0.54749 0.11757,-0.60657 -0.30774,-0.42729 -1.60069,0.67475 -2.46164,0.90935 -3.40397,0.92753 l -1.05833,0.0204 0.62462,0.52037 c 0.805,0.67063 2.67856,0.702 3.42412,0.0573 z m -0.21139,-5.05342 c 0.92416,-0.92416 1.23493,-2.37279 0.81193,-3.784663 -0.65393,-2.182611 -2.30604,-2.740141 -3.77294,-1.273235 -0.76985,0.76985 -0.79841,0.879586 -0.6968,2.677731 0.0934,1.653317 0.19247,1.949417 0.83785,2.504547 0.97596,0.83948 1.89671,0.79887 2.81996,-0.12438 z m 11.19738,8.85517 c -1.7714,-0.57862 -2.90848,-1.42113 -3.48173,-2.57978 -0.80847,-1.63406 -0.40396,-2.07019 1.92756,-2.07826 l 1.04515,-0.004 -1.04749,-0.67921 c -1.90747,-1.23683 -2.75852,-3.15525 -2.76112,-6.224057 -0.003,-3.190388 1.13509,-5.550553 3.17831,-6.592929 1.4309,-0.729991 4.03747,-0.721895 5.2483,0.0163 0.80363,0.489945 0.91665,0.501137 1.19644,0.118494 0.24532,-0.335492 0.71664,-0.406289 2.28754,-0.343602 l 1.97856,0.07895 v 7.582564 7.58257 l -0.82196,1.01521 c -1.2745,1.57414 -2.92086,2.29032 -5.48719,2.38698 -1.3245,0.0499 -2.5841,-0.0581 -3.26237,-0.27963 z m 4.35984,-3.80175 c 0.29452,-0.25466 0.61911,-0.74892 0.7213,-1.09836 0.16013,-0.54749 0.11758,-0.60657 -0.30773,-0.42729 -1.6007,0.67475 -2.46165,0.90935 -3.40397,0.92753 l -1.05834,0.0204 0.62463,0.52037 c 0.805,0.67063 2.67855,0.702 3.42411,0.0573 z m -0.21139,-5.05342 c 0.92416,-0.92416 1.23494,-2.37279 0.81193,-3.784663 -0.65393,-2.182611 -2.30603,-2.740141 -3.77294,-1.273235 -0.76985,0.76985 -0.7984,0.879586 -0.6968,2.677731 0.0934,1.653317 0.19248,1.949417 0.83785,2.504547 0.97596,0.83948 1.89672,0.79887 2.81996,-0.12438 z m -59.3456,8.78979 c -0.102598,-0.1026 -0.186542,-4.27436 -0.186542,-9.27057 v -9.084031 h 2.103519 c 1.64451,0 2.154712,0.09148 2.338123,0.419214 0.209381,0.374139 0.331695,0.360024 1.137627,-0.131302 1.900862,-1.158836 5.464953,-0.541227 6.820345,1.181872 2.089409,2.656256 2.179206,8.220157 0.175072,10.847717 -1.505405,1.97368 -4.827466,2.69054 -6.87368,1.48324 -0.532815,-0.31437 -1.017167,-0.57157 -1.076341,-0.57157 -0.05917,0 -0.141663,1.16085 -0.183314,2.57968 l -0.07573,2.57969 -1.996271,0.0763 c -1.097949,0.042 -2.080215,-0.008 -2.182812,-0.11024 z m 8.300151,-8.71862 c 0.561242,-0.59742 0.641432,-0.93106 0.641432,-2.668748 0,-1.847966 -0.05159,-2.030338 -0.742357,-2.624516 -2.176637,-1.872263 -4.529685,0.75777 -3.638622,4.066934 0.519335,1.92865 2.476712,2.57055 3.739547,1.22633 z m 16.648725,4.67568 c -1.994395,-0.41086 -3.238675,-1.67307 -3.680585,-3.73363 -0.302805,-1.41192 -0.403608,-9.440164 -0.127566,-10.159516 0.12763,-0.332599 0.58828,-0.418515 2.243918,-0.418515 2.510917,0 2.322467,-0.418946 2.419897,5.379694 0.0638,3.795407 0.11864,4.224307 0.58397,4.564057 0.78992,0.57676 1.94034,0.45867 2.67343,-0.27443 0.63353,-0.63353 0.64944,-0.74966 0.64944,-4.740864 0,-2.250284 0.0723,-4.279759 0.1606,-4.509942 0.23479,-0.61187 4.2065,-0.61187 4.4413,0 0.0883,0.230183 0.1606,3.257773 0.1606,6.727976 0,7.35614 0.0724,7.14101 -2.40274,7.14101 -1.21343,0 -1.66871,-0.11389 -1.99947,-0.50019 -0.41429,-0.48386 -0.45523,-0.48468 -1.25418,-0.0251 -1.00341,0.57718 -2.6197,0.80674 -3.868614,0.54946 z m 46.493284,-0.0316 c -3.72463,-0.63459 -5.71607,-3.573 -5.42651,-8.006927 0.14136,-2.164641 0.74955,-3.573045 2.10327,-4.870672 1.25565,-1.203611 2.55634,-1.667055 4.67873,-1.667055 3.93946,0 6.27206,2.198446 6.77191,6.382422 0.27385,2.292342 0.15925,2.348832 -4.76562,2.348832 -3.77584,0 -4.08215,0.0362 -4.08215,0.48304 0,1.58691 2.90598,2.23666 4.12424,0.92214 0.53441,-0.57664 0.94571,-0.73103 2.17018,-0.81458 2.04356,-0.13946 2.62849,0.27594 2.20318,1.56463 -0.3705,1.12263 -1.95163,2.7123 -3.20593,3.22323 -1.27797,0.52058 -3.06867,0.69096 -4.5713,0.43494 z m 3.35605,-9.583717 c -0.52627,-0.925068 -1.04351,-1.256771 -1.95975,-1.256771 -0.60196,0 -1.12879,0.177541 -1.37396,0.463021 -0.92609,1.078373 -0.86976,1.124479 1.37396,1.124479 1.64228,0 2.10361,-0.07785 1.95975,-0.330729 z m 10.21109,9.607277 c -3.11757,-0.62656 -4.76251,-3.14523 -4.76251,-7.292173 0,-3.35153 1.1012,-5.688901 3.17979,-6.749317 1.39053,-0.709395 3.76056,-0.708273 5.15459,0.0024 0.57086,0.291041 1.07229,0.529166 1.11428,0.529166 0.042,0 0.0763,-1.116515 0.0763,-2.481146 0,-1.812284 0.10056,-2.564609 0.37306,-2.790756 0.22808,-0.189291 1.07635,-0.278998 2.18281,-0.230833 l 1.80975,0.07884 0.0695,9.294828 0.0695,9.294831 -0.59866,0.16041 c -1.31905,0.35344 -3.10082,0.17902 -3.63576,-0.35592 -0.51409,-0.51408 -0.5392,-0.51461 -1.38906,-0.0293 -1.05937,0.60499 -2.4128,0.81633 -3.64363,0.56896 z m 3.83666,-4.67156 c 0.79077,-0.85326 1.09181,-2.63894 0.6636,-3.936409 -0.6784,-2.055562 -2.34476,-2.600201 -3.72687,-1.218097 -0.69617,0.696166 -0.77339,0.945139 -0.77339,2.49324 0,1.464236 0.1018,1.840836 0.68497,2.533896 0.90276,1.07287 2.22587,1.12634 3.15169,0.12737 z m -120.054899,4.36965 c -0.42675,-0.24856 -0.463021,-0.98151 -0.463021,-9.356352 0,-8.04178 0.04812,-9.105138 0.418515,-9.247269 0.545843,-0.20946 11.317127,-0.20946 11.86297,0 0.324657,0.124581 0.418515,0.562686 0.418515,1.953516 0,2.180786 0.151514,2.110555 -4.564062,2.115606 l -3.373438,0.0036 v 1.5875 1.5875 h 3.562567 c 3.99405,0 4.11035,0.05615 4.11035,1.984375 0,1.928228 -0.1163,1.984375 -4.11035,1.984375 H 47.71153 v 1.712719 1.71272 l 3.902604,0.0732 3.902605,0.0732 0.07706,1.88451 c 0.07242,1.77127 0.04062,1.89428 -0.529167,2.04691 -1.03075,0.27611 -11.152323,0.17521 -11.652578,-0.11616 z m 19.43552,-0.17724 c -0.666952,-0.57939 -6.316137,-17.4823 -6.063158,-18.141557 0.14015,-0.365223 0.541623,-0.444694 2.229752,-0.441373 1.132354,0.0021 2.200643,0.09422 2.373977,0.204428 0.173334,0.110204 1.04117,2.69799 1.928524,5.750634 0.887355,3.052643 1.682449,5.778015 1.766877,6.056381 0.231585,0.763557 0.385588,0.352367 2.072347,-5.533202 0.834101,-2.910417 1.684652,-5.559557 1.890112,-5.886979 0.336785,-0.536705 0.58216,-0.595313 2.492433,-0.595313 1.742355,0 2.149255,0.07918 2.289866,0.445609 0.09919,0.258482 -1.075677,4.191082 -2.797744,9.364808 -3.332216,10.011214 -2.833524,9.229674 -5.893362,9.235974 -1.297389,0.003 -1.895967,-0.11744 -2.289624,-0.45941 z m 27.131148,0.17724 c -0.426749,-0.24856 -0.46302,-0.98151 -0.46302,-9.356352 0,-10.254898 -0.202483,-9.407869 2.248958,-9.407869 2.452412,0 2.248958,-0.861451 2.248958,9.522449 v 9.201252 l -0.595312,0.15953 c -0.927621,0.2486 -2.927231,0.17941 -3.439584,-0.11901 z"
         id="path911" />
      <path
         style="fill:#a79653;stroke-width:0.264583"
         d="m 114.63566,110.50651 c -1.63202,-0.49523 -2.95172,-1.50189 -3.59818,-2.74469 -0.57446,-1.10437 -0.11286,-1.50234 1.74255,-1.50234 1.18847,0 1.69164,0.13866 2.40025,0.66145 1.70474,1.25772 4.23821,0.639 4.5739,-1.11701 0.077,-0.40263 0.0936,-0.80699 0.037,-0.89857 -0.0566,-0.0916 -0.66114,0.1161 -1.34342,0.46151 -2.98889,1.51317 -6.50597,0.0952 -7.63936,-3.07988 -0.48003,-1.34476 -0.55837,-4.668087 -0.14285,-6.060036 1.1117,-3.72414 5.4934,-5.397288 8.31735,-3.175968 0.66276,0.521329 0.70541,0.52451 0.87514,0.06525 0.26873,-0.727152 0.61683,-0.871178 2.11635,-0.875612 2.31447,-0.0069 2.26006,-0.202906 2.15766,7.776186 -0.0669,5.21517 -0.17738,7.06595 -0.45148,7.56559 -1.15659,2.10825 -3.37142,3.18906 -6.45971,3.15226 -1.04957,-0.0125 -2.21291,-0.11517 -2.58522,-0.22814 z m 4.31494,-8.75857 c 1.35164,-1.46473 0.98192,-4.859302 -0.61944,-5.6874 -1.08987,-0.563592 -1.71763,-0.475515 -2.66892,0.374459 -0.75927,0.678405 -0.85941,0.937874 -0.94458,2.447396 -0.0767,1.358655 0.0112,1.858315 0.44993,2.557575 0.98874,1.57603 2.49936,1.69901 3.78301,0.30797 z m 11.0309,8.75857 c -1.63203,-0.49523 -2.95173,-1.50189 -3.59819,-2.74469 -0.57445,-1.10437 -0.11285,-1.50234 1.74255,-1.50234 1.18848,0 1.69165,0.13866 2.40026,0.66145 1.70473,1.25772 4.2382,0.639 4.57389,-1.11701 0.077,-0.40263 0.0936,-0.80699 0.037,-0.89857 -0.0566,-0.0916 -0.66114,0.1161 -1.34342,0.46151 -2.98889,1.51317 -6.50597,0.0952 -7.63937,-3.07988 -0.48002,-1.34476 -0.55837,-4.668087 -0.14285,-6.060036 1.1117,-3.72414 5.4934,-5.397288 8.31735,-3.175968 0.66277,0.521329 0.70541,0.52451 0.87514,0.06525 0.26873,-0.727152 0.61683,-0.871178 2.11635,-0.875612 2.31447,-0.0069 2.26007,-0.202906 2.15766,7.776186 -0.0669,5.21517 -0.17738,7.06595 -0.45148,7.56559 -1.15659,2.10825 -3.37142,3.18906 -6.45971,3.15226 -1.04956,-0.0125 -2.21291,-0.11517 -2.58521,-0.22814 z m 4.31493,-8.75857 c 1.35165,-1.46473 0.98193,-4.859302 -0.61944,-5.6874 -1.08987,-0.563592 -1.71763,-0.475515 -2.66892,0.374459 -0.75926,0.678405 -0.8594,0.937874 -0.94458,2.447396 -0.0767,1.358655 0.0112,1.858315 0.44994,2.557575 0.98874,1.57603 2.49936,1.69901 3.783,0.30797 z m -59.697186,8.33729 c -0.09064,-0.2362 -0.164796,-4.2059 -0.164796,-8.82156 0,-6.174418 0.0839,-8.476013 0.3175,-8.709611 0.343776,-0.343776 3.074535,-0.432541 3.538257,-0.115012 0.156136,0.106913 0.364173,0.411642 0.462304,0.677175 0.169725,0.459264 0.212373,0.456083 0.875136,-0.06525 2.411434,-1.896835 6.382623,-0.878562 7.799263,1.999845 0.850847,1.728798 1.032725,5.506203 0.362302,7.524653 -0.596037,1.7945 -2.0399,3.23902 -3.64036,3.64202 -1.750536,0.44079 -2.321697,0.38737 -3.782581,-0.35378 -0.715886,-0.36319 -1.386597,-0.66085 -1.49047,-0.66146 -0.10387,-5.3e-4 -0.222932,1.15975 -0.264583,2.57858 l -0.07573,2.57969 -1.885725,0.0771 c -1.542598,0.063 -1.915714,-10e-4 -2.050521,-0.35237 z m 8.349081,-8.02419 c 0.756451,-0.67589 0.860689,-0.94348 0.953394,-2.4474 0.08893,-1.442739 0.01286,-1.822834 -0.522589,-2.611089 -1.993784,-2.935104 -5.442652,-0.262347 -4.444537,3.444369 0.627348,2.32979 2.410282,3.0468 4.013732,1.61412 z m 15.960082,4.06561 c -1.301742,-0.46024 -2.389849,-1.62782 -2.760318,-2.96193 -0.401,-1.44405 -0.372015,-10.203536 0.03511,-10.610661 0.426863,-0.426863 3.242741,-0.412845 3.600246,0.01791 0.162301,0.195562 0.313715,2.191346 0.363125,4.786453 0.0821,4.309758 0.10458,4.467078 0.70938,4.956248 0.84928,0.68692 1.97309,0.63489 2.86635,-0.13272 l 0.74236,-0.63793 0.0852,-4.318863 c 0.0493,-2.496876 0.20246,-4.460132 0.36313,-4.653735 0.35708,-0.430252 3.17332,-0.443844 3.59979,-0.01738 0.45123,0.451223 0.45123,12.936688 0,13.387918 -0.17462,0.17462 -1.00131,0.3175 -1.83708,0.3175 -1.20873,0 -1.5938,-0.10597 -1.88241,-0.51801 -0.35741,-0.51028 -0.38201,-0.50831 -1.64734,0.13229 -1.4427,0.73038 -2.67842,0.80413 -4.237543,0.25289 z m 46.831253,0.16619 c -3.19322,-0.84248 -4.92787,-3.31035 -4.92787,-7.010845 0,-2.24015 0.4391,-3.631324 1.55919,-4.9399 1.37541,-1.606852 2.73596,-2.209065 4.95618,-2.193732 3.87449,0.02676 6.12926,2.065321 6.6189,5.984229 0.28807,2.305668 0.28729,2.306048 -4.66692,2.306048 -4.07641,0 -4.20094,0.0163 -4.20094,0.54952 0,0.30224 0.34803,0.89755 0.7734,1.32292 1.08089,1.08089 2.49973,1.07314 3.72452,-0.0204 0.76972,-0.6872 1.09365,-0.79375 2.41329,-0.79375 0.83832,0 1.602,0.12583 1.69704,0.27962 0.52017,0.84165 -1.07771,3.08149 -2.83949,3.98028 -1.13266,0.57784 -3.86269,0.86433 -5.1073,0.53596 z m 3.97056,-9.032127 c 0.30422,-0.492236 -1.3474,-1.849154 -2.25077,-1.849154 -0.83104,0 -2.38125,1.192469 -2.38125,1.831732 0,0.369593 4.40413,0.386162 4.63202,0.01744 z m 9.29033,8.936997 c -1.3945,-0.36902 -2.90662,-1.94231 -3.45574,-3.59552 -0.88844,-2.674858 -0.46395,-6.583349 0.92719,-8.537019 1.49043,-2.093118 5.19315,-2.612845 7.22551,-1.014195 0.88191,0.693713 0.93086,0.565946 1.02159,-2.6665 l 0.0706,-2.513542 1.67675,-0.07937 c 1.00843,-0.04774 1.82572,0.04427 2.05052,0.230833 0.50595,0.419901 0.55932,17.416523 0.0563,17.919583 -0.18073,0.18073 -1.0462,0.3175 -2.00914,0.3175 -1.46913,0 -1.70985,-0.0696 -1.83003,-0.52917 -0.17415,-0.66596 -0.20396,-0.66372 -1.77515,0.1334 -1.3779,0.69905 -2.28844,0.77588 -3.95833,0.334 z m 4.08397,-3.65024 c 1.86452,-0.99786 1.8375,-5.516666 -0.0388,-6.48693 -1.08867,-0.562976 -1.7175,-0.475631 -2.66395,0.370022 -0.73412,0.655936 -0.85937,0.96216 -0.95945,2.345798 -0.18005,2.48916 0.75667,3.97349 2.54044,4.02563 0.33699,0.01 0.84178,-0.10469 1.12174,-0.25452 z M 43.222921,105.7477 c -0.171976,-0.32134 -0.273891,-3.57673 -0.273891,-8.748641 0,-5.171908 0.101915,-8.427304 0.273891,-8.748643 0.257911,-0.48191 0.609923,-0.511773 6.0325,-0.511773 4.126141,0 5.848615,0.09001 6.076109,0.3175 0.389626,0.389625 0.416748,2.177674 0.04361,2.874893 -0.251473,0.469879 -0.588179,0.511773 -4.113131,0.511773 H 47.42277 l 0.07823,1.785938 0.07823,1.785937 3.561244,0.07421 c 2.441946,0.05089 3.625684,0.175625 3.766262,0.396875 0.11276,0.177464 0.205015,0.798912 0.205015,1.380995 0,0.582084 -0.09226,1.203532 -0.205015,1.380996 -0.140578,0.22125 -1.324316,0.345987 -3.766262,0.396875 l -3.561244,0.07421 v 1.852075 1.85209 l 3.686432,0.0739 c 2.166369,0.0435 3.830119,0.19318 4.034896,0.36313 0.414793,0.34425 0.461791,2.16411 0.07457,2.88763 -0.258009,0.48209 -0.610418,0.51178 -6.076109,0.51178 -5.465691,0 -5.8181,-0.0297 -6.076109,-0.51178 z m 19.644451,0.18105 c -0.510889,-0.66317 -5.969598,-17.350603 -5.810912,-17.764131 0.130083,-0.338992 0.567182,-0.425976 2.140527,-0.425976 1.269154,0 2.053707,0.116239 2.191115,0.324633 0.117729,0.178546 1.00202,3.00628 1.96509,6.283854 0.963067,3.277571 1.856036,5.93723 1.984375,5.91035 0.128336,-0.0269 1.007356,-2.705791 1.953377,-5.953128 0.946023,-3.24734 1.81625,-6.053079 1.933845,-6.23498 0.141491,-0.218869 0.924435,-0.330729 2.314858,-0.330729 2.00738,0 2.101051,0.02675 2.101051,0.600038 0,0.754935 -5.421204,17.042399 -5.840736,17.547899 -0.409186,0.49304 -4.557929,0.5285 -4.93259,0.0422 z m 27.03325,-0.002 c -0.0702,-0.18293 -0.09623,-4.32035 -0.05784,-9.194266 l 0.06979,-8.86169 1.676746,-0.07937 c 1.008433,-0.04774 1.825726,0.04427 2.050521,0.230833 0.505952,0.419901 0.559327,17.416523 0.05627,17.919583 -0.435705,0.4357 -3.627374,0.423 -3.795493,-0.0151 z"
         id="path909" />
      <path
         style="fill:#867943;stroke-width:0.264583"
         d="m 115.27123,110.49671 c -2.3701,-0.50094 -4.32025,-2.08406 -4.32329,-3.50963 -7.9e-4,-0.39619 0.26167,-0.46302 1.8187,-0.46302 1.28538,0 1.91529,0.1152 2.1453,0.39234 0.90887,1.09512 3.80643,0.97342 4.62428,-0.19422 0.44599,-0.63674 0.5543,-2.0502 0.1571,-2.0502 -0.1372,0 -0.68539,0.2572 -1.21821,0.57157 -2.002,1.18121 -5.41838,0.48287 -6.74379,-1.3785 -1.84879,-2.59638 -1.69759,-7.622797 0.29765,-9.895253 1.64535,-1.873954 4.79839,-2.264799 6.79489,-0.84228 l 0.98663,0.702985 0.14422,-0.598533 c 0.13264,-0.55046 0.29202,-0.598535 1.98438,-0.598535 h 1.84015 l 0.0769,6.614583 c 0.0423,3.638023 0.007,7.004083 -0.0792,7.480133 -0.20473,1.13491 -1.57992,2.67519 -2.91621,3.2663 -1.28818,0.56984 -4.08205,0.82089 -5.58955,0.50226 z m 3.31771,-8.10827 c 1.18388,-0.82922 1.69839,-3.122659 1.07164,-4.776844 -0.77663,-2.04974 -2.78396,-2.61416 -4.2134,-1.18472 -1.42995,1.429949 -1.23173,4.893464 0.34319,5.996584 0.74301,0.52042 2.02853,0.50433 2.79857,-0.035 z m 12.02813,8.10827 c -2.37011,-0.50094 -4.32025,-2.08406 -4.3233,-3.50963 -7.9e-4,-0.39619 0.26168,-0.46302 1.8187,-0.46302 1.28538,0 1.9153,0.1152 2.1453,0.39234 0.90887,1.09512 3.80644,0.97342 4.62429,-0.19422 0.44598,-0.63674 0.55429,-2.0502 0.1571,-2.0502 -0.1372,0 -0.6854,0.2572 -1.21822,0.57157 -2.002,1.18121 -5.41837,0.48287 -6.74379,-1.3785 -1.84878,-2.59638 -1.69759,-7.622797 0.29766,-9.895253 1.64535,-1.873954 4.79839,-2.264799 6.79488,-0.84228 l 0.98664,0.702985 0.14421,-0.598533 c 0.13264,-0.55046 0.29203,-0.598535 1.98438,-0.598535 h 1.84016 l 0.0769,6.614583 c 0.0423,3.638023 0.007,7.004083 -0.0792,7.480133 -0.20473,1.13491 -1.57992,2.67519 -2.9162,3.2663 -1.28819,0.56984 -4.08206,0.82089 -5.58955,0.50226 z m 3.31771,-8.10827 c 1.18388,-0.82922 1.69838,-3.122659 1.07163,-4.776844 -0.77663,-2.04974 -2.78396,-2.61416 -4.2134,-1.18472 -1.42995,1.429949 -1.23172,4.893464 0.3432,5.996584 0.743,0.52042 2.02853,0.50433 2.79857,-0.035 z m -59.115512,7.77149 c -0.07025,-0.18308 -0.09628,-4.20144 -0.05784,-8.92969 l 0.0699,-8.596806 h 1.840156 c 1.692352,0 1.851737,0.04808 1.984375,0.598535 l 0.144219,0.598533 0.995561,-0.709338 c 2.058451,-1.466646 5.373802,-0.979683 6.893314,1.0125 0.776005,1.017397 1.505898,3.501369 1.499701,5.103796 -0.0114,2.9492 -1.297551,5.59376 -3.189679,6.55858 -1.365764,0.69643 -3.553929,0.60782 -4.969132,-0.20121 -0.633317,-0.36205 -1.198864,-0.65827 -1.256771,-0.65827 -0.05791,0 -0.105286,1.10728 -0.105286,2.46062 0,1.56105 -0.116075,2.5767 -0.3175,2.77813 -0.432406,0.4324 -3.364082,0.41964 -3.531013,-0.0154 z m 8.260499,-7.93146 c 0.316542,-0.28709 0.711938,-1.09059 0.878657,-1.78556 1.012455,-4.220387 -3.093651,-6.686044 -4.992997,-2.998224 -0.428456,0.831903 -0.366175,2.901854 0.11801,3.922204 0.769694,1.62201 2.699218,2.038 3.99633,0.86158 z m 15.164491,3.43569 C 96.31579,104.35166 96.271519,104.188 96.181577,98.0388 l -0.081,-5.537658 h 1.838627 c 1.432512,0 1.874099,0.09244 1.999226,0.418516 0.08833,0.230182 0.1606,2.291326 0.1606,4.580318 0,3.822584 0.044,4.209004 0.53948,4.740864 0.68209,0.73213 2.32458,0.78337 3.16989,0.0989 0.76956,-0.62315 1.01727,-2.16694 1.03736,-6.46514 l 0.0158,-3.373438 h 1.85209 1.85208 v 6.746875 6.746873 h -1.85208 c -1.01865,0 -1.85391,-0.0893 -1.85614,-0.19844 -0.002,-0.10914 -0.10371,-0.3556 -0.22551,-0.5477 -0.17399,-0.27441 -0.43623,-0.20353 -1.22349,0.33073 -1.36651,0.92733 -3.865893,0.96832 -5.164225,0.0847 z m 46.023132,-0.13229 c -1.80221,-0.91388 -2.79971,-2.30032 -3.19874,-4.44599 -0.91286,-4.908664 1.80765,-8.849321 6.1093,-8.849321 2.21186,0 3.79952,0.63337 4.99658,1.993299 1.16142,1.31944 1.63492,2.647583 1.63492,4.585835 v 1.358367 l -4.16719,0.004 c -2.29195,0.002 -4.34142,0.11425 -4.55437,0.24894 -0.33686,0.21306 -0.32956,0.36576 0.0562,1.17462 0.8619,1.80743 3.1156,2.22266 4.43587,0.81729 0.53153,-0.56578 0.85088,-0.6574 2.29128,-0.6574 1.56317,0 1.67367,0.0396 1.67367,0.60004 0,0.33002 -0.29321,1.03153 -0.65157,1.5589 -1.57358,2.31573 -5.71224,3.08885 -8.62591,1.61137 z m 5.4697,-8.115261 c 0.23476,-0.611773 -0.40266,-1.493317 -1.37289,-1.898709 -0.78417,-0.327646 -1.02532,-0.327646 -1.80949,0 -0.97024,0.405392 -1.60765,1.286936 -1.3729,1.898709 0.10828,0.28217 0.67758,0.3762 2.27764,0.3762 1.60006,0 2.16936,-0.09403 2.27764,-0.3762 z m 8.70257,8.467861 c -1.84915,-0.82539 -2.98733,-2.82926 -3.22603,-5.67972 -0.41417,-4.945774 2.03916,-8.230877 5.90729,-7.910102 0.97336,0.08072 1.72281,0.337826 2.4086,0.826299 l 0.99556,0.709121 0.076,-2.699703 c 0.0418,-1.484836 0.20519,-2.855407 0.36313,-3.045714 0.31604,-0.380806 2.78627,-0.473889 3.33485,-0.125663 0.26083,0.165573 0.31901,2.157251 0.26458,9.057928 l -0.0698,8.845684 -1.80742,0.0787 c -1.63337,0.0711 -1.82106,0.0266 -1.94909,-0.46302 -0.0779,-0.29796 -0.17516,-0.54174 -0.2161,-0.54174 -0.0409,0 -0.59259,0.29622 -1.22591,0.65827 -1.31784,0.75337 -3.52215,0.88486 -4.85565,0.28964 z m 4.98803,-3.55827 c 1.60077,-1.40805 1.65401,-4.403925 0.1076,-6.054745 -0.72566,-0.77465 -2.25126,-0.79941 -3.20149,-0.05196 -1.40213,1.102916 -1.55636,4.273185 -0.28159,5.788175 0.95475,1.13464 2.30301,1.26187 3.37548,0.31853 z m -120.032758,3.49723 c -0.09972,-0.0997 -0.181319,-4.06672 -0.181319,-8.815552 0,-6.362737 0.08353,-8.717764 0.3175,-8.951735 0.371039,-0.371039 10.964437,-0.453644 11.537858,-0.08997 0.23345,0.148058 0.319506,0.684593 0.264583,1.649595 l -0.0814,1.430165 -3.686432,0.07393 c -2.241682,0.04496 -3.82752,0.191019 -4.046431,0.3727 -0.249246,0.206854 -0.336101,0.794613 -0.282319,1.910448 l 0.07768,1.611675 3.704167,0.132292 3.704167,0.132291 v 1.5875 1.5875 l -3.634849,0.07359 c -4.142648,0.08387 -4.019947,0.0016 -3.856112,2.589771 l 0.08263,1.30539 3.439583,0.0646 c 4.836354,0.0909 4.673082,0.0245 4.57702,1.86191 l -0.0791,1.51306 -5.837952,0.0711 c -3.210872,0.0391 -5.919544,-0.0105 -6.019271,-0.11025 z m 19.465759,-0.15927 c -0.143806,-0.1819 -1.542108,-4.18427 -3.107335,-8.894151 -2.290057,-6.89094 -2.774982,-8.608327 -2.482911,-8.793342 0.641299,-0.406239 3.568033,-0.28312 3.940577,0.165767 0.184314,0.222086 1.121627,3.09976 2.082917,6.394833 0.961289,3.295076 1.866863,6.030383 2.012383,6.078473 0.145521,0.0481 1.023893,-2.5617 1.95194,-5.799523 0.928045,-3.237822 1.853523,-6.15484 2.05662,-6.482262 0.319418,-0.514951 0.591666,-0.594765 2.01681,-0.591262 0.906151,0.0021 1.81088,0.107516 2.010508,0.233974 0.291947,0.184936 -0.217106,1.970148 -2.601717,9.124074 l -2.964677,8.894149 H 65.44898 c -1.545619,0 -2.414606,-0.11104 -2.588289,-0.33073 z m 27.106815,0.16518 c -0.102973,-0.10297 -0.187224,-4.07263 -0.187224,-8.821462 0,-6.362737 0.08353,-8.717764 0.3175,-8.951735 0.354952,-0.354952 2.80521,-0.426564 3.324148,-0.09716 0.260837,0.165573 0.319014,2.157251 0.264584,9.057928 l -0.06977,8.845689 -1.731004,0.077 c -0.952051,0.0423 -1.815254,-0.007 -1.91823,-0.11024 z"
         id="path907" />
      <path
         style="fill:#605730;stroke-width:0.264583"
         d="m 114.26954,110.09802 c -0.57367,-0.20436 -1.34757,-0.59853 -1.71979,-0.87594 -0.82934,-0.61809 -1.70365,-2.05621 -1.475,-2.42617 0.0924,-0.14952 0.82215,-0.27185 1.62164,-0.27185 1.11457,0 1.68068,0.15429 2.42706,0.66146 1.47598,1.00296 3.73208,0.82211 4.46922,-0.35825 0.42148,-0.67489 0.67926,-2.08416 0.4115,-2.24965 -0.1288,-0.0796 -0.81079,0.14719 -1.51554,0.50398 -3.08648,1.56257 -6.48052,0.15212 -7.53228,-3.13017 -0.4032,-1.25829 -0.41451,-4.241658 -0.0216,-5.700769 0.33049,-1.227333 1.5672,-2.792883 2.63118,-3.330797 1.73329,-0.876303 4.00092,-0.718201 5.39187,0.375925 0.85773,0.674685 0.94601,0.665277 1.24958,-0.133188 0.2248,-0.591254 0.40102,-0.661459 1.66033,-0.661459 0.77486,0 1.55172,0.142875 1.72634,0.3175 0.41604,0.416044 0.43879,11.790888 0.0274,13.709078 -0.55146,2.57139 -2.8384,3.97581 -6.43777,3.95348 -1.0291,-0.006 -2.34046,-0.17882 -2.91413,-0.38318 z m 3.94438,-7.38958 c 1.16243,-0.48569 1.76666,-1.6711 1.76666,-3.46591 0,-2.107803 -0.82192,-3.441332 -2.29094,-3.71692 -2.02168,-0.379269 -3.44569,1.439813 -3.24958,4.151109 0.11674,1.613891 0.76488,2.673061 1.93085,3.155341 0.73892,0.30563 0.83034,0.2995 1.84301,-0.12362 z m 11.40145,7.38958 c -0.57366,-0.20436 -1.34757,-0.59853 -1.71979,-0.87594 -0.82933,-0.61809 -1.70364,-2.05621 -1.475,-2.42617 0.0924,-0.14952 0.82215,-0.27185 1.62165,-0.27185 1.11457,0 1.68068,0.15429 2.42705,0.66146 1.47599,1.00296 3.73208,0.82211 4.46922,-0.35825 0.42148,-0.67489 0.67926,-2.08416 0.4115,-2.24965 -0.12879,-0.0796 -0.81079,0.14719 -1.51554,0.50398 -3.08647,1.56257 -6.48052,0.15212 -7.53228,-3.13017 -0.4032,-1.25829 -0.41451,-4.241658 -0.0216,-5.700769 0.33049,-1.227333 1.5672,-2.792883 2.63117,-3.330797 1.7333,-0.876303 4.00092,-0.718201 5.39188,0.375925 0.85772,0.674685 0.946,0.665277 1.24958,-0.133188 0.22479,-0.591254 0.40101,-0.661459 1.66032,-0.661459 0.77487,0 1.55172,0.142875 1.72634,0.3175 0.41605,0.416044 0.4388,11.790888 0.0274,13.709078 -0.55147,2.57139 -2.8384,3.97581 -6.43778,3.95348 -1.0291,-0.006 -2.34046,-0.17882 -2.91413,-0.38318 z m 3.94438,-7.38958 c 1.16243,-0.48569 1.76667,-1.6711 1.76667,-3.46591 0,-2.107803 -0.82193,-3.441332 -2.29094,-3.71692 -2.02168,-0.379269 -3.4457,1.439813 -3.24958,4.151109 0.11674,1.613891 0.76487,2.673061 1.93084,3.155341 0.73893,0.30563 0.83034,0.2995 1.84301,-0.12362 z m -58.684329,7.3434 c -0.09701,-0.097 -0.17639,-3.94274 -0.17639,-8.54605 0,-6.156948 0.08394,-8.453587 0.3175,-8.687148 0.174625,-0.174625 0.952267,-0.3175 1.728095,-0.3175 1.437976,0 1.425382,-0.0089 1.816793,1.279832 0.07775,0.256001 0.330023,0.166511 0.912688,-0.32377 1.541158,-1.2968 4.018029,-1.476918 5.758082,-0.418727 0.959443,0.583472 1.992302,1.937755 2.394887,3.140167 0.438198,1.308791 0.375857,5.039846 -0.107095,6.409546 -1.158949,3.2869 -4.879666,4.61602 -7.653156,2.73387 -0.533963,-0.36235 -1.081719,-0.5903 -1.217236,-0.50655 -0.135515,0.0837 -0.246391,1.33588 -0.246391,2.7825 v 2.63022 h -1.675694 c -0.921633,0 -1.755071,-0.0794 -1.852083,-0.17639 z m 7.738571,-7.35258 c 2.160659,-1.11732 2.130036,-5.800997 -0.04528,-6.925896 -2.389749,-1.23579 -4.65985,1.50174 -3.893696,4.695436 0.525775,2.19167 2.190779,3.13448 3.938976,2.23046 z m 16.294415,3.17634 c -1.242957,-0.45714 -2.149591,-1.47854 -2.522934,-2.8423 -0.148109,-0.54101 -0.235244,-3.080216 -0.19521,-5.688539 l 0.07231,-4.711327 h 1.719792 1.719791 l 0.132292,4.5876 0.132292,4.587596 0.74236,0.63792 c 1.00986,0.8678 2.08546,0.82231 3.15607,-0.13347 l 0.86407,-0.77139 0.13229,-4.454128 0.13229,-4.454128 h 1.7198 1.71979 v 6.614583 6.614583 h -1.71979 c -1.58205,0 -1.72657,-0.0477 -1.80434,-0.59531 -0.10545,-0.74246 -0.10079,-0.74281 -1.38284,0.10561 -1.28437,0.84995 -3.12815,1.05066 -4.618033,0.5027 z m 46.831253,0.15211 c -2.11683,-0.55704 -3.7643,-2.10001 -4.35909,-4.0826 -0.78298,-2.609878 -0.14952,-6.156469 1.39545,-7.812774 1.35671,-1.454481 3.66399,-2.083784 5.99808,-1.635964 2.93153,0.562443 4.71544,2.724354 4.83757,5.862619 l 0.0655,1.682779 -4.31032,0.0727 c -4.74788,0.0801 -4.91135,0.14368 -4.2815,1.66427 0.70142,1.69339 3.07945,2.09634 4.58265,0.77652 0.75413,-0.66214 1.12993,-0.79375 2.26647,-0.79375 1.56706,0 1.85711,0.34531 1.25782,1.49747 -0.48864,0.93943 -1.36326,1.7443 -2.54587,2.34286 -1.01822,0.51534 -3.68657,0.74691 -4.90675,0.42582 z m 4.22108,-8.479656 c 0.47759,-0.772766 -1.21868,-2.401078 -2.50129,-2.401078 -1.28261,0 -2.97888,1.628312 -2.50129,2.401078 0.0832,0.134614 1.20878,0.244755 2.50129,0.244755 1.29251,0 2.41809,-0.110141 2.50129,-0.244755 z m 9.09211,8.397436 c -2.32606,-0.61904 -3.73179,-3.19709 -3.70609,-6.796837 0.0282,-3.943503 1.57193,-6.205651 4.61033,-6.755696 1.26227,-0.228507 2.87299,0.205161 3.86628,1.040961 1.00858,0.848664 1.09858,0.617746 1.09858,-2.818588 v -2.636282 l 1.78594,0.07823 1.78594,0.07824 0.074,8.334374 c 0.0407,4.583908 0.009,8.602268 -0.0712,8.929688 -0.13051,0.53516 -0.30573,0.59531 -1.73418,0.59531 -1.45149,0 -1.61078,-0.0572 -1.8405,-0.66146 -0.26703,-0.70234 -0.64562,-0.8506 -0.94307,-0.36932 -0.29787,0.48198 -2.30769,1.28528 -3.15797,1.26221 -0.43656,-0.0118 -1.23219,-0.13822 -1.76806,-0.28083 z m 4.22424,-3.27395 c 0.89713,-0.62837 1.45587,-1.94228 1.45587,-3.423523 0,-1.622229 -0.61399,-2.897073 -1.65443,-3.435104 -0.96816,-0.500655 -1.4244,-0.503764 -2.36737,-0.01614 -2.00522,1.036936 -2.17251,5.514007 -0.2562,6.856247 0.77874,0.54545 2.05785,0.55384 2.82213,0.0185 z m -119.745977,3.00585 c -0.233384,-0.23338 -0.3175,-2.50579 -0.3175,-8.577316 0,-4.542901 0.07227,-8.448151 0.160599,-8.678333 0.139645,-0.36391 0.912681,-0.418515 5.924818,-0.418515 6.340139,0 6.089796,-0.06896 6.081366,1.675286 -0.007,1.441804 -0.107045,1.478582 -4.240199,1.558258 l -3.825542,0.07375 v 1.984375 1.984375 l 3.704167,0.132292 3.704167,0.132292 v 1.322916 1.322917 l -3.704167,0.132292 -3.704167,0.132291 v 2.11666 2.11667 l 3.825542,0.0737 c 4.133154,0.0797 4.23323,0.11645 4.240199,1.55826 0.0084,1.74139 0.242184,1.67528 -5.924465,1.67528 -4.00847,0 -5.697848,-0.0905 -5.924818,-0.3175 z m 19.394933,-0.003 C 61.683454,102.21925 57.23653,88.726782 57.23653,88.411904 c 0,-0.367604 0.299707,-0.419579 2.039247,-0.353661 l 2.039247,0.07728 1.853941,6.416145 c 1.019665,3.52888 1.987643,6.416152 2.151058,6.416152 0.163417,0 0.925793,-2.172897 1.694169,-4.828652 0.768377,-2.655755 1.62596,-5.572786 1.905741,-6.482291 l 0.508693,-1.653646 h 1.973744 c 1.876296,0 1.972771,0.02939 1.954036,0.595312 -0.01085,0.327422 -1.290762,4.345782 -2.844271,8.929688 l -2.824562,8.334379 -2.319431,0.0765 c -1.709285,0.0564 -2.351698,-0.0132 -2.442096,-0.26457 z m 27.295209,0.14398 c -0.09701,-0.097 -0.17639,-4.15058 -0.17639,-9.00793 v -8.831532 l 1.785938,0.07823 1.785937,0.07824 0.07399,8.334374 c 0.04069,4.583908 0.0087,8.602268 -0.07119,8.929688 -0.12985,0.53246 -0.307607,0.59531 -1.683541,0.59531 -0.846098,0 -1.617737,-0.0794 -1.714749,-0.17639 z"
         id="path905" />
      <path
         style="fill:#070603;stroke-width:0.264583"
         d="m 114.32279,109.85174 c -0.54438,-0.19429 -1.28604,-0.54737 -1.64814,-0.78463 -0.71331,-0.46738 -1.54486,-1.84395 -1.27618,-2.11263 0.41274,-0.41274 2.76844,-0.14844 3.5004,0.39273 1.5527,1.14795 4.29658,0.83784 5.05047,-0.57082 0.31487,-0.58835 0.46264,-2.51716 0.21204,-2.76776 -0.0866,-0.0866 -0.73034,0.20579 -1.43047,0.6498 -0.99253,0.62944 -1.56759,0.80601 -2.61024,0.80149 -3.41032,-0.0148 -5.2587,-2.24635 -5.24628,-6.333772 0.0117,-3.845042 1.41386,-5.942804 4.33905,-6.491574 1.24946,-0.234399 2.94672,0.248455 3.71292,1.056294 0.82748,0.872447 1.26076,0.829717 1.45541,-0.143537 0.15912,-0.795567 0.18022,-0.804891 1.64704,-0.727604 l 1.48585,0.07829 0.0799,5.820834 c 0.10334,7.532139 0.003,8.359319 -1.1722,9.660089 -0.55023,0.60904 -1.40557,1.18077 -2.14181,1.43163 -1.48409,0.50568 -4.59596,0.52719 -5.95772,0.0412 z m 4.73704,-7.33219 c 1.11855,-0.92831 1.55145,-3.971935 0.77775,-5.468109 -0.90207,-1.744406 -2.58582,-2.315091 -4.07791,-1.382157 -2.4397,1.525442 -2.04799,6.674036 0.56058,7.368216 0.89931,0.23932 2.10084,0.0122 2.73958,-0.51795 z m 10.60879,7.33219 c -0.54438,-0.19429 -1.28604,-0.54737 -1.64814,-0.78463 -0.71331,-0.46738 -1.54485,-1.84395 -1.27617,-2.11263 0.41273,-0.41274 2.76843,-0.14844 3.5004,0.39273 1.5527,1.14795 4.29657,0.83784 5.05046,-0.57082 0.31488,-0.58835 0.46265,-2.51716 0.21205,-2.76776 -0.0866,-0.0866 -0.73034,0.20579 -1.43048,0.6498 -0.99253,0.62944 -1.56758,0.80601 -2.61024,0.80149 -3.41032,-0.0148 -5.2587,-2.24635 -5.24628,-6.333772 0.0117,-3.845042 1.41386,-5.942804 4.33906,-6.491574 1.24946,-0.234399 2.94671,0.248455 3.71291,1.056294 0.82749,0.872447 1.26077,0.829717 1.45542,-0.143537 0.15911,-0.795567 0.18022,-0.804891 1.64703,-0.727604 l 1.48585,0.07829 0.0799,5.820834 c 0.10334,7.532139 0.003,8.359319 -1.1722,9.660089 -0.55024,0.60904 -1.40558,1.18077 -2.14182,1.43163 -1.48409,0.50568 -4.59596,0.52719 -5.95772,0.0412 z m 4.73704,-7.33219 c 1.11855,-0.92831 1.55146,-3.971935 0.77775,-5.468109 -0.90206,-1.744406 -2.58582,-2.315091 -4.0779,-1.382157 -2.43971,1.525442 -2.048,6.674036 0.56058,7.368216 0.89931,0.23932 2.10083,0.0122 2.73957,-0.51795 z m -59.379564,-1.08872 0.06981,-8.532813 1.521354,-0.07935 c 1.479659,-0.07718 1.521355,-0.06063 1.521355,0.603615 0,0.979966 0.680222,1.116629 1.496242,0.300606 1.247913,-1.24791 3.564655,-1.471771 5.435394,-0.525205 0.866161,0.438263 1.884159,1.762124 2.292242,2.980959 0.390869,1.167432 0.387323,4.836928 -0.006,6.149538 -0.640731,2.13861 -2.651705,3.66671 -4.82535,3.66671 -0.927026,0 -2.51115,-0.67394 -3.27842,-1.39475 -0.89094,-0.837 -1.10526,-0.29954 -1.110105,2.78381 l -0.004,2.57969 H 76.54745 74.956283 Z m 8.290222,1.10726 c 0.872278,-0.81946 1.26411,-2.19176 1.094642,-3.833736 -0.167884,-1.626642 -0.746506,-2.628945 -1.845861,-3.197442 -3.452781,-1.785503 -5.974953,4.375642 -2.897404,7.077758 0.80409,0.70601 1.084757,0.80287 1.978916,0.68293 0.573064,-0.0769 1.324431,-0.40514 1.669707,-0.72951 z m 15.578971,3.08464 c -1.178557,-0.51335 -2.178923,-1.83899 -2.365624,-3.13482 -0.08901,-0.61778 -0.125984,-3.028226 -0.08217,-5.356559 l 0.07966,-4.233334 h 1.455209 1.455208 l 0.132292,4.453824 0.132291,4.453819 0.864075,0.7717 c 0.96307,0.86011 1.82553,0.96788 2.97768,0.37209 1.2814,-0.66264 1.43924,-1.24303 1.58221,-5.818099 l 0.13229,-4.233334 h 1.45521 1.4552 l 0.0709,6.416146 0.0708,6.416147 h -1.5922 c -1.5117,0 -1.5922,-0.0327 -1.5922,-0.64584 0,-0.94327 -0.38254,-1.03088 -1.26372,-0.28941 -1.45411,1.22355 -3.33768,1.53741 -4.967113,0.82767 z m 46.844371,0.1404 c -3.00262,-0.79014 -4.45072,-2.98416 -4.4274,-6.707986 0.0284,-4.533032 3.25464,-7.19201 7.62544,-6.284635 2.57836,0.535266 4.20039,2.525858 4.5156,5.541645 l 0.16558,1.58419 -4.46878,0.07271 c -4.36582,0.07103 -4.47067,0.08601 -4.55097,0.650116 -0.12041,0.84578 0.63823,2.13262 1.52874,2.59312 1.26005,0.65159 2.50871,0.51319 3.54012,-0.3924 0.7526,-0.66079 1.13085,-0.79375 2.25816,-0.79375 0.9171,0 1.35413,0.10827 1.35413,0.33546 0,0.70423 -1.38726,2.33245 -2.44862,2.87391 -1.19946,0.61192 -3.76243,0.87749 -5.092,0.52762 z m 4.34985,-8.083608 c 0.70393,-0.848185 -1.1286,-2.79713 -2.63006,-2.79713 -1.38202,0 -3.18848,1.804162 -2.80557,2.802007 0.20654,0.538244 4.98844,0.533955 5.43563,-0.0049 z m 8.80805,7.984028 c -1.16569,-0.37371 -2.60952,-2.02934 -2.98593,-3.42398 -0.40342,-1.49468 -0.39393,-4.65688 0.0178,-5.941212 0.4201,-1.310312 1.41588,-2.638277 2.33458,-3.113352 1.82594,-0.944232 4.21469,-0.719498 5.3769,0.505862 1.27116,1.340241 1.54559,0.840949 1.54559,-2.812068 v -2.637399 l 1.52135,0.07935 1.52136,0.07935 v 8.598958 8.598961 l -1.52136,0.0793 c -1.31679,0.0687 -1.52189,0.0153 -1.5254,-0.39688 -0.002,-0.26192 -0.11502,-0.6517 -0.25065,-0.86617 -0.20945,-0.3312 -0.33892,-0.30321 -0.85946,0.18582 -1.33662,1.25569 -3.31007,1.66123 -5.17481,1.06341 z m 4.53879,-2.86702 c 1.03776,-0.8163 1.4856,-1.88602 1.4856,-3.548513 0,-3.158588 -2.23871,-4.959913 -4.44769,-3.578733 -2.3011,1.438781 -2.1483,6.117816 0.23986,7.345146 0.9416,0.4839 1.93068,0.40473 2.72223,-0.2179 z m -119.835998,2.6059 c -0.07143,-0.18615 -0.09837,-4.08782 -0.05987,-8.670388 l 0.07,-8.331941 h 5.688542 5.688542 v 1.190625 1.190625 l -3.96875,0.132291 -3.96875,0.132292 -0.07823,1.942703 c -0.0485,1.2045 0.03921,2.08421 0.230835,2.315104 0.237511,0.286184 1.128501,0.372401 3.848542,0.372401 h 3.53948 v 1.190625 1.190625 h -3.518959 c -2.384189,0 -3.621344,0.102386 -3.836458,0.3175 -0.446998,0.446998 -0.42182,4.029048 0.03096,4.404818 0.204777,0.16996 1.868527,0.31969 4.034896,0.36313 l 3.686432,0.0739 v 1.19062 1.19063 l -5.628675,0.0714 c -4.379725,0.0556 -5.65749,-0.004 -5.758545,-0.26701 z m 19.604298,0.0876 c -0.275265,-0.44539 -5.703536,-16.489441 -5.703536,-16.857641 0,-0.272399 0.436126,-0.36454 1.725464,-0.36454 2.049698,0 1.746663,-0.477057 3.445394,5.423958 0.670258,2.328334 1.45293,5.037005 1.739268,6.019271 0.689009,2.363602 1.118682,2.332712 1.840026,-0.132292 0.308737,-1.055026 1.174925,-4.001822 1.924865,-6.548437 l 1.363525,-4.630208 1.785938,-0.07824 c 1.326041,-0.05809 1.785937,0.01003 1.785937,0.26452 0,0.188516 -1.260067,4.123018 -2.800152,8.743339 l -2.800154,8.40059 h -2.079024 c -1.143463,0 -2.145861,-0.10815 -2.227551,-0.24032 z m 27.104799,-8.490931 v -8.757658 l 1.521354,0.07935 1.521354,0.07935 v 8.598958 8.598961 l -1.521354,0.0793 -1.521354,0.0794 z"
         id="path903" />
    </g>
  </g>
</svg>
